<svg xmlns="http://www.w3.org/2000/svg" width="1362" height="722" viewBox="0 0 1362 722"><defs><symbol id="status-wifi" viewBox="0 -960 960 960"><path d="M480-120q-42 0-71-29t-29-71q0-42 29-71t71-29q42 0 71 29t29 71q0 42-29 71t-71 29Zm0-440q75 0 142.5 24T745-470q20 15 20.5 39.5T748-388q-17 17-42 17.5T661-384q-38-26-84-41t-97-15q-51 0-97 15t-84 41q-20 14-45 13t-42-18q-17-18-17-42.5t20-39.5q55-42 122.5-65.5T480-560Zm0-240q125 0 235.5 41T914-643q20 17 21 42t-17 43q-17 17-42 17.5T831-556q-72-59-161.5-91.5T480-680q-100 0-189.5 32.5T129-556q-20 16-45 15.5T42-558q-18-18-17-43t21-42q88-75 198.5-116T480-800Z" fill="currentColor"/></symbol><symbol id="status-battery-low" viewBox="0 -960 960 960"><path d="M320-80q-17 0-28.5-11.5T280-120v-640q0-17 11.5-28.5T320-800h80v-40q0-17 11.5-28.5T440-880h80q17 0 28.5 11.5T560-840v40h80q17 0 28.5 11.5T680-760v640q0 17-11.5 28.5T640-80H320Zm40-160h240v-480H360v480Z" fill="currentColor"/></symbol><symbol id="status-battery-mid" viewBox="0 -960 960 960"><path d="M360-480h240v-240H360v240ZM320-80q-17 0-28.5-11.5T280-120v-640q0-17 11.5-28.5T320-800h80v-40q0-17 11.5-28.5T440-880h80q17 0 28.5 11.5T560-840v40h80q17 0 28.5 11.5T680-760v640q0 17-11.5 28.5T640-80H320Z" fill="currentColor"/></symbol><symbol id="status-battery-full" viewBox="0 -960 960 960"><path d="M320-80q-17 0-28.5-11.5T280-120v-640q0-17 11.5-28.5T320-800h80v-40q0-17 11.5-28.5T440-880h80q17 0 28.5 11.5T560-840v40h80q17 0 28.5 11.5T680-760v640q0 17-11.5 28.5T640-80H320Z" fill="currentColor"/></symbol><symbol id="status-battery-charging" viewBox="0 -960 960 960"><path d="M660-200h-62q-12 0-17.5-10.5T582-231l100-143q5-6 11.5-4t6.5 10v88h62q12 0 17.5 10.5T778-249L678-106q-5 6-11.5 4t-6.5-10v-88ZM320-80q-17 0-28.5-11.5T280-120v-640q0-17 11.5-28.5T320-800h80v-40q0-17 11.5-28.5T440-880h80q17 0 28.5 11.5T560-840v40h80q17 0 28.5 11.5T680-760v253q0 11-8 19t-19 10q-42 5-78 22.5T511-410q-32 32-51.5 75.5T440-240q0 30 7 58t21 54q8 17 0 32.5T443-80H320Z" fill="currentColor"/></symbol><symbol id="status-bluetooth" viewBox="0 -960 960 960"><path d="M440-137v-247L284-228q-11 11-28 11t-28-11q-11-11-11-28t11-28l196-196-196-196q-11-11-11-28t11-28q11-11 28-11t28 11l156 156v-247q0-18 12-29.5t28-11.5q8 0 15 3t13 9l172 172q6 6 8.5 13t2.5 15q0 8-2.5 15t-8.5 13L536-480l144 144q6 6 8.5 13t2.5 15q0 8-2.5 15t-8.5 13L508-108q-6 6-13 9t-15 3q-16 0-28-11.5T440-137Zm80-439 76-76-76-74v150Zm0 342 76-74-76-76v150Z" fill="currentColor"/></symbol><symbol id="status-airplane" viewBox="0 -960 960 960"><path d="M340-80v-60l80-60v-220L80-320v-80l340-200v-220q0-25 17.5-42.5T480-880q25 0 42.5 17.5T540-820v220l340 200v80L540-420v220l80 60v60l-140-40-140 40Z" fill="currentColor"/></symbol><symbol id="system-cpu" viewBox="0 -960 960 960"><path d="M360-400v-160q0-17 11.5-28.5T400-600h160q17 0 28.5 11.5T600-560v160q0 17-11.5 28.5T560-360H400q-17 0-28.5-11.5T360-400Zm0 240v-40h-80q-33 0-56.5-23.5T200-280v-80h-40q-17 0-28.5-11.5T120-400q0-17 11.5-28.5T160-440h40v-80h-40q-17 0-28.5-11.5T120-560q0-17 11.5-28.5T160-600h40v-80q0-33 23.5-56.5T280-760h80v-40q0-17 11.5-28.5T400-840q17 0 28.5 11.5T440-800v40h80v-40q0-17 11.5-28.5T560-840q17 0 28.5 11.5T600-800v40h80q33 0 56.5 23.5T760-680v80h40q17 0 28.5 11.5T840-560q0 17-11.5 28.5T800-520h-40v80h40q17 0 28.5 11.5T840-400q0 17-11.5 28.5T800-360h-40v80q0 33-23.5 56.5T680-200h-80v40q0 17-11.5 28.5T560-120q-17 0-28.5-11.5T520-160v-40h-80v40q0 17-11.5 28.5T400-120q-17 0-28.5-11.5T360-160Zm320-120v-400H280v400h400Z" fill="currentColor"/></symbol><symbol id="system-ram" viewBox="0 -960 960 960"><path d="M280-360q17 0 28.5-11.5T320-400v-160q0-17-11.5-28.5T280-600q-17 0-28.5 11.5T240-560v160q0 17 11.5 28.5T280-360Zm200 0q17 0 28.5-11.5T520-400v-160q0-17-11.5-28.5T480-600q-17 0-28.5 11.5T440-560v160q0 17 11.5 28.5T480-360Zm200 0q17 0 28.5-11.5T720-400v-160q0-17-11.5-28.5T680-600q-17 0-28.5 11.5T640-560v160q0 17 11.5 28.5T680-360ZM160-200q-33 0-56.5-23.5T80-280v-400q0-33 23.5-56.5T160-760h40v-40q0-17 11.5-28.5T240-840q17 0 28.5 11.5T280-800v40h160v-40q0-17 11.5-28.5T480-840q17 0 28.5 11.5T520-800v40h160v-40q0-17 11.5-28.5T720-840q17 0 28.5 11.5T760-800v40h40q33 0 56.5 23.5T880-680v400q0 33-23.5 56.5T800-200h-40v40q0 17-11.5 28.5T720-120q-17 0-28.5-11.5T680-160v-40H520v40q0 17-11.5 28.5T480-120q-17 0-28.5-11.5T440-160v-40H280v40q0 17-11.5 28.5T240-120q-17 0-28.5-11.5T200-160v-40h-40Z" fill="currentColor"/></symbol><symbol id="system-disk" viewBox="0 -960 960 960"><path d="M680-320q25 0 42.5-17t17.5-43q0-25-17.5-42.5T680-440q-26 0-43 17.5T620-380q0 26 17 43t43 17ZM80-600l136-136q11-11 25.5-17.5T273-760h413q17 0 31.5 6.5T743-736l137 136H80Zm80 400q-34 0-57-23t-23-57v-240h800v240q0 34-23.5 57T800-200H160Z" fill="currentColor"/></symbol><symbol id="system-temperature" viewBox="0 -960 960 960"><path d="M480-80q-83 0-141.5-58.5T280-280q0-48 21-89.5t59-70.5v-320q0-50 35-85t85-35q50 0 85 35t35 85v320q38 29 59 70.5t21 89.5q0 83-58.5 141.5T480-80Zm-40-440h80v-40h-40v-40h40v-80h-40v-40h40v-40q0-17-11.5-28.5T480-800q-17 0-28.5 11.5T440-760v240Z" fill="currentColor"/></symbol><symbol id="system-gear" viewBox="0 -960 960 960"><path d="M433-80q-27 0-46.5-18T363-142l-9-66q-13-5-24.5-12T307-235l-62 26q-25 11-50 2t-39-32l-47-82q-14-23-8-49t27-43l53-40q-1-7-1-13.5v-27q0-6.5 1-13.5l-53-40q-21-17-27-43t8-49l47-82q14-23 39-32t50 2l62 26q11-8 23-15t24-12l9-66q4-26 23.5-44t46.5-18h94q27 0 46.5 18t23.5 44l9 66q13 5 24.5 12t22.5 15l62-26q25-11 50-2t39 32l47 82q14 23 8 49t-27 43l-53 40q1 7 1 13.5v27q0 6.5-2 13.5l53 40q21 17 27 43t-8 49l-48 82q-14 23-39 32t-50-2l-60-26q-11 8-23 15t-24 12l-9 66q-4 26-23.5 44T527-80h-94Zm49-260q58 0 99-41t41-99q0-58-41-99t-99-41q-59 0-99.5 41T342-480q0 58 40.5 99t99.5 41Z" fill="currentColor"/></symbol><symbol id="media-play" viewBox="0 -960 960 960"><path d="M320-273v-414q0-17 12-28.5t28-11.5q5 0 10.5 1.5T381-721l326 207q9 6 13.5 15t4.5 19q0 10-4.5 19T707-446L381-239q-5 3-10.5 4.5T360-233q-16 0-28-11.5T320-273Z" fill="currentColor"/></symbol><symbol id="media-pause" viewBox="0 -960 960 960"><path d="M640-200q-33 0-56.5-23.5T560-280v-400q0-33 23.5-56.5T640-760q33 0 56.5 23.5T720-680v400q0 33-23.5 56.5T640-200Zm-320 0q-33 0-56.5-23.5T240-280v-400q0-33 23.5-56.5T320-760q33 0 56.5 23.5T400-680v400q0 33-23.5 56.5T320-200Z" fill="currentColor"/></symbol><symbol id="media-stop" viewBox="0 -960 960 960"><path d="M240-320v-320q0-33 23.5-56.5T320-720h320q33 0 56.5 23.5T720-640v320q0 33-23.5 56.5T640-240H320q-33 0-56.5-23.5T240-320Z" fill="currentColor"/></symbol><symbol id="media-next" viewBox="0 -960 960 960"><path d="M660-280v-400q0-17 11.5-28.5T700-720q17 0 28.5 11.5T740-680v400q0 17-11.5 28.5T700-240q-17 0-28.5-11.5T660-280Zm-440-35v-330q0-18 12-29t28-11q5 0 11 1t11 5l248 166q9 6 13.5 14.5T548-480q0 10-4.5 18.5T530-447L282-281q-5 4-11 5t-11 1q-16 0-28-11t-12-29Z" fill="currentColor"/></symbol><symbol id="media-prev" viewBox="0 -960 960 960"><path d="M220-280v-400q0-17 11.5-28.5T260-720q17 0 28.5 11.5T300-680v400q0 17-11.5 28.5T260-240q-17 0-28.5-11.5T220-280Zm458-1L430-447q-9-6-13.5-14.5T412-480q0-10 4.5-18.5T430-513l248-166q5-4 11-5t11-1q16 0 28 11t12 29v330q0 18-12 29t-28 11q-5 0-11-1t-11-5Z" fill="currentColor"/></symbol><symbol id="media-shuffle" viewBox="0 -960 960 960"><path d="M600-160q-17 0-28.5-11.5T560-200q0-17 11.5-28.5T600-240h64l-99-99q-12-12-11.5-28.5T566-396q12-12 28.5-12t28.5 12l97 98v-62q0-17 11.5-28.5T760-400q17 0 28.5 11.5T800-360v160q0 17-11.5 28.5T760-160H600Zm-428-12q-11-11-11-28t11-28l492-492h-64q-17 0-28.5-11.5T560-760q0-17 11.5-28.5T600-800h160q17 0 28.5 11.5T800-760v160q0 17-11.5 28.5T760-560q-17 0-28.5-11.5T720-600v-64L228-172q-11 11-28 11t-28-11Zm-1-560q-11-11-11-28t11-28q11-11 27.5-11t28.5 11l168 167q11 11 11.5 27.5T395-565q-11 11-28 11t-28-11L171-732Z" fill="currentColor"/></symbol><symbol id="media-repeat" viewBox="0 -960 960 960"><path d="m274-200 34 34q12 12 11.5 28T308-110q-12 12-28.5 12.5T251-109L148-212q-6-6-8.5-13t-2.5-15q0-8 2.5-15t8.5-13l103-103q12-12 28.5-11.5T308-370q11 12 11.5 28T308-314l-34 34h406v-120q0-17 11.5-28.5T720-440q17 0 28.5 11.5T760-400v120q0 33-23.5 56.5T680-200H274Zm412-480H280v120q0 17-11.5 28.5T240-520q-17 0-28.5-11.5T200-560v-120q0-33 23.5-56.5T280-760h406l-34-34q-12-12-11.5-28t11.5-28q12-12 28.5-12.5T709-851l103 103q6 6 8.5 13t2.5 15q0 8-2.5 15t-8.5 13L709-589q-12 12-28.5 11.5T652-590q-11-12-11.5-28t11.5-28l34-34Z" fill="currentColor"/></symbol><symbol id="media-music-note" viewBox="0 -960 960 960"><path d="M400-120q-66 0-113-47t-47-113q0-66 47-113t113-47q23 0 42.5 5.5T480-418v-382q0-17 11.5-28.5T520-840h160q17 0 28.5 11.5T720-800v80q0 17-11.5 28.5T680-680H560v400q0 66-47 113t-113 47Z" fill="currentColor"/></symbol><symbol id="actions-search" viewBox="0 -960 960 960"><path d="M380-320q-109 0-184.5-75.5T120-580q0-109 75.5-184.5T380-840q109 0 184.5 75.5T640-580q0 44-14 83t-38 69l224 224q11 11 11 28t-11 28q-11 11-28 11t-28-11L532-372q-30 24-69 38t-83 14Zm0-80q75 0 127.5-52.5T560-580q0-75-52.5-127.5T380-760q-75 0-127.5 52.5T200-580q0 75 52.5 127.5T380-400Z" fill="currentColor"/></symbol><symbol id="actions-close" viewBox="0 -960 960 960"><path d="M480-424 284-228q-11 11-28 11t-28-11q-11-11-11-28t11-28l196-196-196-196q-11-11-11-28t11-28q11-11 28-11t28 11l196 196 196-196q11-11 28-11t28 11q11 11 11 28t-11 28L536-480l196 196q11 11 11 28t-11 28q-11 11-28 11t-28-11L480-424Z" fill="currentColor"/></symbol><symbol id="actions-minimize" viewBox="0 -960 960 960"><path d="M280-120q-17 0-28.5-11.5T240-160q0-17 11.5-28.5T280-200h400q17 0 28.5 11.5T720-160q0 17-11.5 28.5T680-120H280Z" fill="currentColor"/></symbol><symbol id="actions-arrow-left" viewBox="0 -960 960 960"><path d="m432-480 156 156q11 11 11 28t-11 28q-11 11-28 11t-28-11L348-452q-6-6-8.5-13t-2.5-15q0-8 2.5-15t8.5-13l184-184q11-11 28-11t28 11q11 11 11 28t-11 28L432-480Z" fill="currentColor"/></symbol><symbol id="actions-arrow-right" viewBox="0 -960 960 960"><path d="M504-480 348-636q-11-11-11-28t11-28q11-11 28-11t28 11l184 184q6 6 8.5 13t2.5 15q0 8-2.5 15t-8.5 13L404-268q-11 11-28 11t-28-11q-11-11-11-28t11-28l156-156Z" fill="currentColor"/></symbol><symbol id="actions-refresh" viewBox="0 -960 960 960"><path d="M480-160q-134 0-227-93t-93-227q0-134 93-227t227-93q69 0 132 28.5T720-690v-70q0-17 11.5-28.5T760-800q17 0 28.5 11.5T800-760v200q0 17-11.5 28.5T760-520H560q-17 0-28.5-11.5T520-560q0-17 11.5-28.5T560-600h128q-32-56-87.5-88T480-720q-100 0-170 70t-70 170q0 100 70 170t170 70q68 0 124.5-34.5T692-367q8-14 22.5-19.5t29.5-.5q16 5 23 21t-1 30q-41 80-117 128t-169 48Z" fill="currentColor"/></symbol><symbol id="record-record-circle" viewBox="0 -960 960 960"><path d="M480-280q83 0 141.5-58.5T680-480q0-83-58.5-141.5T480-680q-83 0-141.5 58.5T280-480q0 83 58.5 141.5T480-280Zm0 200q-83 0-156-31.5T197-197q-54-54-85.5-127T80-480q0-83 31.5-156T197-763q54-54 127-85.5T480-880q83 0 156 31.5T763-763q54 54 85.5 127T880-480q0 83-31.5 156T763-197q-54 54-127 85.5T480-80Z" fill="currentColor"/></symbol><symbol id="record-pause-circle" viewBox="0 -960 960 960"><path d="M400-320q17 0 28.5-11.5T440-360v-240q0-17-11.5-28.5T400-640q-17 0-28.5 11.5T360-600v240q0 17 11.5 28.5T400-320Zm160 0q17 0 28.5-11.5T600-360v-240q0-17-11.5-28.5T560-640q-17 0-28.5 11.5T520-600v240q0 17 11.5 28.5T560-320ZM480-80q-83 0-156-31.5T197-197q-54-54-85.5-127T80-480q0-83 31.5-156T197-763q54-54 127-85.5T480-880q83 0 156 31.5T763-763q54 54 85.5 127T880-480q0 83-31.5 156T763-197q-54 54-127 85.5T480-80Z" fill="currentColor"/></symbol><symbol id="record-stop-circle" viewBox="0 -960 960 960"><path d="M360-320h240q17 0 28.5-11.5T640-360v-240q0-17-11.5-28.5T600-640H360q-17 0-28.5 11.5T320-600v240q0 17 11.5 28.5T360-320ZM480-80q-83 0-156-31.5T197-197q-54-54-85.5-127T80-480q0-83 31.5-156T197-763q54-54 127-85.5T480-880q83 0 156 31.5T763-763q54 54 85.5 127T880-480q0 83-31.5 156T763-197q-54 54-127 85.5T480-80Z" fill="currentColor"/></symbol><symbol id="record-screenshot" viewBox="0 -960 960 960"><path d="M580-340v-70q0-13 8.5-21.5T610-440q13 0 21.5 8.5T640-410v90q0 17-11.5 28.5T600-280h-90q-13 0-21.5-8.5T480-310q0-13 8.5-21.5T510-340h70ZM380-620v70q0 13-8.5 21.5T350-520q-13 0-21.5-8.5T320-550v-90q0-17 11.5-28.5T360-680h90q13 0 21.5 8.5T480-650q0 13-8.5 21.5T450-620h-70ZM280-40q-33 0-56.5-23.5T200-120v-720q0-33 23.5-56.5T280-920h400q33 0 56.5 23.5T760-840v720q0 33-23.5 56.5T680-40H280Zm0-200h400v-480H280v480Z" fill="currentColor"/></symbol><symbol id="record-scissors" viewBox="0 -960 960 960"><path d="m480-400-94 94q8 15 11 32t3 34q0 66-47 113T240-80q-66 0-113-47T80-240q0-66 47-113t113-47q17 0 34 3t32 11l94-94-94-94q-15 8-32 11t-34 3q-66 0-113-47T80-720q0-66 47-113t113-47q66 0 113 47t47 113q0 17-3 34t-11 32l438 438q27 27 12 61.5T783-120q-11 0-21.5-4.5T743-137L480-400Zm120-120-80-80 223-223q8-8 18.5-12.5T783-840q38 0 52.5 35T823-743L600-520ZM240-640q33 0 56.5-23.5T320-720q0-33-23.5-56.5T240-800q-33 0-56.5 23.5T160-720q0 33 23.5 56.5T240-640Zm240 180q8 0 14-6t6-14q0-8-6-14t-14-6q-8 0-14 6t-6 14q0 8 6 14t14 6ZM240-160q33 0 56.5-23.5T320-240q0-33-23.5-56.5T240-320q-33 0-56.5 23.5T160-240q0 33 23.5 56.5T240-160Z" fill="currentColor"/></symbol></defs><rect x="0" y="0" width="1362" height="354" fill="#f4f4f6"/><text x="16" y="26" font-family="sans-serif" font-size="15" font-weight="600" fill="#1e1e2e">harmonica-icons · Material Symbols Rounded fill1 — 24 / 16 / 40 px — light</text><text x="16" y="64" font-family="sans-serif" font-size="11" letter-spacing="2" fill="#1e1e2e" opacity="0.55">STATUS</text><g color="#1e1e2e"><use href="#status-wifi" x="16" y="50" width="24" height="24"/><use href="#status-wifi" x="50" y="54" width="16" height="16"/><use href="#status-wifi" x="76" y="46" width="40" height="40"/><text x="124" y="64" font-family="sans-serif" font-size="10.5" fill="#1e1e2e" opacity="0.75">wifi</text><text x="124" y="78" font-family="sans-serif" font-size="9" fill="#1e1e2e" opacity="0.45">status/wifi</text></g><g color="#1e1e2e"><use href="#status-battery-low" x="206" y="50" width="24" height="24"/><use href="#status-battery-low" x="240" y="54" width="16" height="16"/><use href="#status-battery-low" x="266" y="46" width="40" height="40"/><text x="314" y="64" font-family="sans-serif" font-size="10.5" fill="#1e1e2e" opacity="0.75">battery_1_bar</text><text x="314" y="78" font-family="sans-serif" font-size="9" fill="#1e1e2e" opacity="0.45">status/battery-low</text></g><g color="#1e1e2e"><use href="#status-battery-mid" x="396" y="50" width="24" height="24"/><use href="#status-battery-mid" x="430" y="54" width="16" height="16"/><use href="#status-battery-mid" x="456" y="46" width="40" height="40"/><text x="504" y="64" font-family="sans-serif" font-size="10.5" fill="#1e1e2e" opacity="0.75">battery_4_bar</text><text x="504" y="78" font-family="sans-serif" font-size="9" fill="#1e1e2e" opacity="0.45">status/battery-mid</text></g><g color="#1e1e2e"><use href="#status-battery-full" x="586" y="50" width="24" height="24"/><use href="#status-battery-full" x="620" y="54" width="16" height="16"/><use href="#status-battery-full" x="646" y="46" width="40" height="40"/><text x="694" y="64" font-family="sans-serif" font-size="10.5" fill="#1e1e2e" opacity="0.75">battery_full</text><text x="694" y="78" font-family="sans-serif" font-size="9" fill="#1e1e2e" opacity="0.45">status/battery-full</text></g><g color="#1e1e2e"><use href="#status-battery-charging" x="776" y="50" width="24" height="24"/><use href="#status-battery-charging" x="810" y="54" width="16" height="16"/><use href="#status-battery-charging" x="836" y="46" width="40" height="40"/><text x="884" y="64" font-family="sans-serif" font-size="10.5" fill="#1e1e2e" opacity="0.75">battery_charging_full</text><text x="884" y="78" font-family="sans-serif" font-size="9" fill="#1e1e2e" opacity="0.45">status/battery-charging</text></g><g color="#1e1e2e"><use href="#status-bluetooth" x="966" y="50" width="24" height="24"/><use href="#status-bluetooth" x="1000" y="54" width="16" height="16"/><use href="#status-bluetooth" x="1026" y="46" width="40" height="40"/><text x="1074" y="64" font-family="sans-serif" font-size="10.5" fill="#1e1e2e" opacity="0.75">bluetooth</text><text x="1074" y="78" font-family="sans-serif" font-size="9" fill="#1e1e2e" opacity="0.45">status/bluetooth</text></g><g color="#1e1e2e"><use href="#status-airplane" x="1156" y="50" width="24" height="24"/><use href="#status-airplane" x="1190" y="54" width="16" height="16"/><use href="#status-airplane" x="1216" y="46" width="40" height="40"/><text x="1264" y="64" font-family="sans-serif" font-size="10.5" fill="#1e1e2e" opacity="0.75">airplanemode_active</text><text x="1264" y="78" font-family="sans-serif" font-size="9" fill="#1e1e2e" opacity="0.45">status/airplane</text></g><text x="16" y="126" font-family="sans-serif" font-size="11" letter-spacing="2" fill="#1e1e2e" opacity="0.55">SYSTEM</text><g color="#1e1e2e"><use href="#system-cpu" x="16" y="112" width="24" height="24"/><use href="#system-cpu" x="50" y="116" width="16" height="16"/><use href="#system-cpu" x="76" y="108" width="40" height="40"/><text x="124" y="126" font-family="sans-serif" font-size="10.5" fill="#1e1e2e" opacity="0.75">memory</text><text x="124" y="140" font-family="sans-serif" font-size="9" fill="#1e1e2e" opacity="0.45">system/cpu</text></g><g color="#1e1e2e"><use href="#system-ram" x="206" y="112" width="24" height="24"/><use href="#system-ram" x="240" y="116" width="16" height="16"/><use href="#system-ram" x="266" y="108" width="40" height="40"/><text x="314" y="126" font-family="sans-serif" font-size="10.5" fill="#1e1e2e" opacity="0.75">memory_alt</text><text x="314" y="140" font-family="sans-serif" font-size="9" fill="#1e1e2e" opacity="0.45">system/ram</text></g><g color="#1e1e2e"><use href="#system-disk" x="396" y="112" width="24" height="24"/><use href="#system-disk" x="430" y="116" width="16" height="16"/><use href="#system-disk" x="456" y="108" width="40" height="40"/><text x="504" y="126" font-family="sans-serif" font-size="10.5" fill="#1e1e2e" opacity="0.75">hard_drive</text><text x="504" y="140" font-family="sans-serif" font-size="9" fill="#1e1e2e" opacity="0.45">system/disk</text></g><g color="#1e1e2e"><use href="#system-temperature" x="586" y="112" width="24" height="24"/><use href="#system-temperature" x="620" y="116" width="16" height="16"/><use href="#system-temperature" x="646" y="108" width="40" height="40"/><text x="694" y="126" font-family="sans-serif" font-size="10.5" fill="#1e1e2e" opacity="0.75">device_thermostat</text><text x="694" y="140" font-family="sans-serif" font-size="9" fill="#1e1e2e" opacity="0.45">system/temperature</text></g><g color="#1e1e2e"><use href="#system-gear" x="776" y="112" width="24" height="24"/><use href="#system-gear" x="810" y="116" width="16" height="16"/><use href="#system-gear" x="836" y="108" width="40" height="40"/><text x="884" y="126" font-family="sans-serif" font-size="10.5" fill="#1e1e2e" opacity="0.75">settings</text><text x="884" y="140" font-family="sans-serif" font-size="9" fill="#1e1e2e" opacity="0.45">system/gear</text></g><text x="16" y="188" font-family="sans-serif" font-size="11" letter-spacing="2" fill="#1e1e2e" opacity="0.55">MEDIA</text><g color="#1e1e2e"><use href="#media-play" x="16" y="174" width="24" height="24"/><use href="#media-play" x="50" y="178" width="16" height="16"/><use href="#media-play" x="76" y="170" width="40" height="40"/><text x="124" y="188" font-family="sans-serif" font-size="10.5" fill="#1e1e2e" opacity="0.75">play_arrow</text><text x="124" y="202" font-family="sans-serif" font-size="9" fill="#1e1e2e" opacity="0.45">media/play</text></g><g color="#1e1e2e"><use href="#media-pause" x="206" y="174" width="24" height="24"/><use href="#media-pause" x="240" y="178" width="16" height="16"/><use href="#media-pause" x="266" y="170" width="40" height="40"/><text x="314" y="188" font-family="sans-serif" font-size="10.5" fill="#1e1e2e" opacity="0.75">pause</text><text x="314" y="202" font-family="sans-serif" font-size="9" fill="#1e1e2e" opacity="0.45">media/pause</text></g><g color="#1e1e2e"><use href="#media-stop" x="396" y="174" width="24" height="24"/><use href="#media-stop" x="430" y="178" width="16" height="16"/><use href="#media-stop" x="456" y="170" width="40" height="40"/><text x="504" y="188" font-family="sans-serif" font-size="10.5" fill="#1e1e2e" opacity="0.75">stop</text><text x="504" y="202" font-family="sans-serif" font-size="9" fill="#1e1e2e" opacity="0.45">media/stop</text></g><g color="#1e1e2e"><use href="#media-next" x="586" y="174" width="24" height="24"/><use href="#media-next" x="620" y="178" width="16" height="16"/><use href="#media-next" x="646" y="170" width="40" height="40"/><text x="694" y="188" font-family="sans-serif" font-size="10.5" fill="#1e1e2e" opacity="0.75">skip_next</text><text x="694" y="202" font-family="sans-serif" font-size="9" fill="#1e1e2e" opacity="0.45">media/next</text></g><g color="#1e1e2e"><use href="#media-prev" x="776" y="174" width="24" height="24"/><use href="#media-prev" x="810" y="178" width="16" height="16"/><use href="#media-prev" x="836" y="170" width="40" height="40"/><text x="884" y="188" font-family="sans-serif" font-size="10.5" fill="#1e1e2e" opacity="0.75">skip_previous</text><text x="884" y="202" font-family="sans-serif" font-size="9" fill="#1e1e2e" opacity="0.45">media/prev</text></g><g color="#1e1e2e"><use href="#media-shuffle" x="966" y="174" width="24" height="24"/><use href="#media-shuffle" x="1000" y="178" width="16" height="16"/><use href="#media-shuffle" x="1026" y="170" width="40" height="40"/><text x="1074" y="188" font-family="sans-serif" font-size="10.5" fill="#1e1e2e" opacity="0.75">shuffle</text><text x="1074" y="202" font-family="sans-serif" font-size="9" fill="#1e1e2e" opacity="0.45">media/shuffle</text></g><g color="#1e1e2e"><use href="#media-repeat" x="1156" y="174" width="24" height="24"/><use href="#media-repeat" x="1190" y="178" width="16" height="16"/><use href="#media-repeat" x="1216" y="170" width="40" height="40"/><text x="1264" y="188" font-family="sans-serif" font-size="10.5" fill="#1e1e2e" opacity="0.75">repeat</text><text x="1264" y="202" font-family="sans-serif" font-size="9" fill="#1e1e2e" opacity="0.45">media/repeat</text></g><g color="#1e1e2e"><use href="#media-music-note" x="1346" y="174" width="24" height="24"/><use href="#media-music-note" x="1380" y="178" width="16" height="16"/><use href="#media-music-note" x="1406" y="170" width="40" height="40"/><text x="1454" y="188" font-family="sans-serif" font-size="10.5" fill="#1e1e2e" opacity="0.75">music_note</text><text x="1454" y="202" font-family="sans-serif" font-size="9" fill="#1e1e2e" opacity="0.45">media/music-note</text></g><text x="16" y="250" font-family="sans-serif" font-size="11" letter-spacing="2" fill="#1e1e2e" opacity="0.55">ACTIONS</text><g color="#1e1e2e"><use href="#actions-search" x="16" y="236" width="24" height="24"/><use href="#actions-search" x="50" y="240" width="16" height="16"/><use href="#actions-search" x="76" y="232" width="40" height="40"/><text x="124" y="250" font-family="sans-serif" font-size="10.5" fill="#1e1e2e" opacity="0.75">search</text><text x="124" y="264" font-family="sans-serif" font-size="9" fill="#1e1e2e" opacity="0.45">actions/search</text></g><g color="#1e1e2e"><use href="#actions-close" x="206" y="236" width="24" height="24"/><use href="#actions-close" x="240" y="240" width="16" height="16"/><use href="#actions-close" x="266" y="232" width="40" height="40"/><text x="314" y="250" font-family="sans-serif" font-size="10.5" fill="#1e1e2e" opacity="0.75">close</text><text x="314" y="264" font-family="sans-serif" font-size="9" fill="#1e1e2e" opacity="0.45">actions/close</text></g><g color="#1e1e2e"><use href="#actions-minimize" x="396" y="236" width="24" height="24"/><use href="#actions-minimize" x="430" y="240" width="16" height="16"/><use href="#actions-minimize" x="456" y="232" width="40" height="40"/><text x="504" y="250" font-family="sans-serif" font-size="10.5" fill="#1e1e2e" opacity="0.75">minimize</text><text x="504" y="264" font-family="sans-serif" font-size="9" fill="#1e1e2e" opacity="0.45">actions/minimize</text></g><g color="#1e1e2e"><use href="#actions-arrow-left" x="586" y="236" width="24" height="24"/><use href="#actions-arrow-left" x="620" y="240" width="16" height="16"/><use href="#actions-arrow-left" x="646" y="232" width="40" height="40"/><text x="694" y="250" font-family="sans-serif" font-size="10.5" fill="#1e1e2e" opacity="0.75">chevron_left</text><text x="694" y="264" font-family="sans-serif" font-size="9" fill="#1e1e2e" opacity="0.45">actions/arrow-left</text></g><g color="#1e1e2e"><use href="#actions-arrow-right" x="776" y="236" width="24" height="24"/><use href="#actions-arrow-right" x="810" y="240" width="16" height="16"/><use href="#actions-arrow-right" x="836" y="232" width="40" height="40"/><text x="884" y="250" font-family="sans-serif" font-size="10.5" fill="#1e1e2e" opacity="0.75">chevron_right</text><text x="884" y="264" font-family="sans-serif" font-size="9" fill="#1e1e2e" opacity="0.45">actions/arrow-right</text></g><g color="#1e1e2e"><use href="#actions-refresh" x="966" y="236" width="24" height="24"/><use href="#actions-refresh" x="1000" y="240" width="16" height="16"/><use href="#actions-refresh" x="1026" y="232" width="40" height="40"/><text x="1074" y="250" font-family="sans-serif" font-size="10.5" fill="#1e1e2e" opacity="0.75">refresh</text><text x="1074" y="264" font-family="sans-serif" font-size="9" fill="#1e1e2e" opacity="0.45">actions/refresh</text></g><text x="16" y="312" font-family="sans-serif" font-size="11" letter-spacing="2" fill="#1e1e2e" opacity="0.55">RECORD</text><g color="#1e1e2e"><use href="#record-record-circle" x="16" y="298" width="24" height="24"/><use href="#record-record-circle" x="50" y="302" width="16" height="16"/><use href="#record-record-circle" x="76" y="294" width="40" height="40"/><text x="124" y="312" font-family="sans-serif" font-size="10.5" fill="#1e1e2e" opacity="0.75">radio_button_checked</text><text x="124" y="326" font-family="sans-serif" font-size="9" fill="#1e1e2e" opacity="0.45">record/record-circle</text></g><g color="#1e1e2e"><use href="#record-pause-circle" x="206" y="298" width="24" height="24"/><use href="#record-pause-circle" x="240" y="302" width="16" height="16"/><use href="#record-pause-circle" x="266" y="294" width="40" height="40"/><text x="314" y="312" font-family="sans-serif" font-size="10.5" fill="#1e1e2e" opacity="0.75">pause_circle</text><text x="314" y="326" font-family="sans-serif" font-size="9" fill="#1e1e2e" opacity="0.45">record/pause-circle</text></g><g color="#1e1e2e"><use href="#record-stop-circle" x="396" y="298" width="24" height="24"/><use href="#record-stop-circle" x="430" y="302" width="16" height="16"/><use href="#record-stop-circle" x="456" y="294" width="40" height="40"/><text x="504" y="312" font-family="sans-serif" font-size="10.5" fill="#1e1e2e" opacity="0.75">stop_circle</text><text x="504" y="326" font-family="sans-serif" font-size="9" fill="#1e1e2e" opacity="0.45">record/stop-circle</text></g><g color="#1e1e2e"><use href="#record-screenshot" x="586" y="298" width="24" height="24"/><use href="#record-screenshot" x="620" y="302" width="16" height="16"/><use href="#record-screenshot" x="646" y="294" width="40" height="40"/><text x="694" y="312" font-family="sans-serif" font-size="10.5" fill="#1e1e2e" opacity="0.75">screenshot</text><text x="694" y="326" font-family="sans-serif" font-size="9" fill="#1e1e2e" opacity="0.45">record/screenshot</text></g><g color="#1e1e2e"><use href="#record-scissors" x="776" y="298" width="24" height="24"/><use href="#record-scissors" x="810" y="302" width="16" height="16"/><use href="#record-scissors" x="836" y="294" width="40" height="40"/><text x="884" y="312" font-family="sans-serif" font-size="10.5" fill="#1e1e2e" opacity="0.75">content_cut</text><text x="884" y="326" font-family="sans-serif" font-size="9" fill="#1e1e2e" opacity="0.45">record/scissors</text></g><rect x="0" y="368" width="1362" height="354" fill="#181825"/><text x="16" y="394" font-family="sans-serif" font-size="15" font-weight="600" fill="#cdd6f4">dark</text><text x="16" y="432" font-family="sans-serif" font-size="11" letter-spacing="2" fill="#cdd6f4" opacity="0.55">STATUS</text><g color="#cdd6f4"><use href="#status-wifi" x="16" y="418" width="24" height="24"/><use href="#status-wifi" x="50" y="422" width="16" height="16"/><use href="#status-wifi" x="76" y="414" width="40" height="40"/><text x="124" y="432" font-family="sans-serif" font-size="10.5" fill="#cdd6f4" opacity="0.75">wifi</text><text x="124" y="446" font-family="sans-serif" font-size="9" fill="#cdd6f4" opacity="0.45">status/wifi</text></g><g color="#cdd6f4"><use href="#status-battery-low" x="206" y="418" width="24" height="24"/><use href="#status-battery-low" x="240" y="422" width="16" height="16"/><use href="#status-battery-low" x="266" y="414" width="40" height="40"/><text x="314" y="432" font-family="sans-serif" font-size="10.5" fill="#cdd6f4" opacity="0.75">battery_1_bar</text><text x="314" y="446" font-family="sans-serif" font-size="9" fill="#cdd6f4" opacity="0.45">status/battery-low</text></g><g color="#cdd6f4"><use href="#status-battery-mid" x="396" y="418" width="24" height="24"/><use href="#status-battery-mid" x="430" y="422" width="16" height="16"/><use href="#status-battery-mid" x="456" y="414" width="40" height="40"/><text x="504" y="432" font-family="sans-serif" font-size="10.5" fill="#cdd6f4" opacity="0.75">battery_4_bar</text><text x="504" y="446" font-family="sans-serif" font-size="9" fill="#cdd6f4" opacity="0.45">status/battery-mid</text></g><g color="#cdd6f4"><use href="#status-battery-full" x="586" y="418" width="24" height="24"/><use href="#status-battery-full" x="620" y="422" width="16" height="16"/><use href="#status-battery-full" x="646" y="414" width="40" height="40"/><text x="694" y="432" font-family="sans-serif" font-size="10.5" fill="#cdd6f4" opacity="0.75">battery_full</text><text x="694" y="446" font-family="sans-serif" font-size="9" fill="#cdd6f4" opacity="0.45">status/battery-full</text></g><g color="#cdd6f4"><use href="#status-battery-charging" x="776" y="418" width="24" height="24"/><use href="#status-battery-charging" x="810" y="422" width="16" height="16"/><use href="#status-battery-charging" x="836" y="414" width="40" height="40"/><text x="884" y="432" font-family="sans-serif" font-size="10.5" fill="#cdd6f4" opacity="0.75">battery_charging_full</text><text x="884" y="446" font-family="sans-serif" font-size="9" fill="#cdd6f4" opacity="0.45">status/battery-charging</text></g><g color="#cdd6f4"><use href="#status-bluetooth" x="966" y="418" width="24" height="24"/><use href="#status-bluetooth" x="1000" y="422" width="16" height="16"/><use href="#status-bluetooth" x="1026" y="414" width="40" height="40"/><text x="1074" y="432" font-family="sans-serif" font-size="10.5" fill="#cdd6f4" opacity="0.75">bluetooth</text><text x="1074" y="446" font-family="sans-serif" font-size="9" fill="#cdd6f4" opacity="0.45">status/bluetooth</text></g><g color="#cdd6f4"><use href="#status-airplane" x="1156" y="418" width="24" height="24"/><use href="#status-airplane" x="1190" y="422" width="16" height="16"/><use href="#status-airplane" x="1216" y="414" width="40" height="40"/><text x="1264" y="432" font-family="sans-serif" font-size="10.5" fill="#cdd6f4" opacity="0.75">airplanemode_active</text><text x="1264" y="446" font-family="sans-serif" font-size="9" fill="#cdd6f4" opacity="0.45">status/airplane</text></g><text x="16" y="494" font-family="sans-serif" font-size="11" letter-spacing="2" fill="#cdd6f4" opacity="0.55">SYSTEM</text><g color="#cdd6f4"><use href="#system-cpu" x="16" y="480" width="24" height="24"/><use href="#system-cpu" x="50" y="484" width="16" height="16"/><use href="#system-cpu" x="76" y="476" width="40" height="40"/><text x="124" y="494" font-family="sans-serif" font-size="10.5" fill="#cdd6f4" opacity="0.75">memory</text><text x="124" y="508" font-family="sans-serif" font-size="9" fill="#cdd6f4" opacity="0.45">system/cpu</text></g><g color="#cdd6f4"><use href="#system-ram" x="206" y="480" width="24" height="24"/><use href="#system-ram" x="240" y="484" width="16" height="16"/><use href="#system-ram" x="266" y="476" width="40" height="40"/><text x="314" y="494" font-family="sans-serif" font-size="10.5" fill="#cdd6f4" opacity="0.75">memory_alt</text><text x="314" y="508" font-family="sans-serif" font-size="9" fill="#cdd6f4" opacity="0.45">system/ram</text></g><g color="#cdd6f4"><use href="#system-disk" x="396" y="480" width="24" height="24"/><use href="#system-disk" x="430" y="484" width="16" height="16"/><use href="#system-disk" x="456" y="476" width="40" height="40"/><text x="504" y="494" font-family="sans-serif" font-size="10.5" fill="#cdd6f4" opacity="0.75">hard_drive</text><text x="504" y="508" font-family="sans-serif" font-size="9" fill="#cdd6f4" opacity="0.45">system/disk</text></g><g color="#cdd6f4"><use href="#system-temperature" x="586" y="480" width="24" height="24"/><use href="#system-temperature" x="620" y="484" width="16" height="16"/><use href="#system-temperature" x="646" y="476" width="40" height="40"/><text x="694" y="494" font-family="sans-serif" font-size="10.5" fill="#cdd6f4" opacity="0.75">device_thermostat</text><text x="694" y="508" font-family="sans-serif" font-size="9" fill="#cdd6f4" opacity="0.45">system/temperature</text></g><g color="#cdd6f4"><use href="#system-gear" x="776" y="480" width="24" height="24"/><use href="#system-gear" x="810" y="484" width="16" height="16"/><use href="#system-gear" x="836" y="476" width="40" height="40"/><text x="884" y="494" font-family="sans-serif" font-size="10.5" fill="#cdd6f4" opacity="0.75">settings</text><text x="884" y="508" font-family="sans-serif" font-size="9" fill="#cdd6f4" opacity="0.45">system/gear</text></g><text x="16" y="556" font-family="sans-serif" font-size="11" letter-spacing="2" fill="#cdd6f4" opacity="0.55">MEDIA</text><g color="#cdd6f4"><use href="#media-play" x="16" y="542" width="24" height="24"/><use href="#media-play" x="50" y="546" width="16" height="16"/><use href="#media-play" x="76" y="538" width="40" height="40"/><text x="124" y="556" font-family="sans-serif" font-size="10.5" fill="#cdd6f4" opacity="0.75">play_arrow</text><text x="124" y="570" font-family="sans-serif" font-size="9" fill="#cdd6f4" opacity="0.45">media/play</text></g><g color="#cdd6f4"><use href="#media-pause" x="206" y="542" width="24" height="24"/><use href="#media-pause" x="240" y="546" width="16" height="16"/><use href="#media-pause" x="266" y="538" width="40" height="40"/><text x="314" y="556" font-family="sans-serif" font-size="10.5" fill="#cdd6f4" opacity="0.75">pause</text><text x="314" y="570" font-family="sans-serif" font-size="9" fill="#cdd6f4" opacity="0.45">media/pause</text></g><g color="#cdd6f4"><use href="#media-stop" x="396" y="542" width="24" height="24"/><use href="#media-stop" x="430" y="546" width="16" height="16"/><use href="#media-stop" x="456" y="538" width="40" height="40"/><text x="504" y="556" font-family="sans-serif" font-size="10.5" fill="#cdd6f4" opacity="0.75">stop</text><text x="504" y="570" font-family="sans-serif" font-size="9" fill="#cdd6f4" opacity="0.45">media/stop</text></g><g color="#cdd6f4"><use href="#media-next" x="586" y="542" width="24" height="24"/><use href="#media-next" x="620" y="546" width="16" height="16"/><use href="#media-next" x="646" y="538" width="40" height="40"/><text x="694" y="556" font-family="sans-serif" font-size="10.5" fill="#cdd6f4" opacity="0.75">skip_next</text><text x="694" y="570" font-family="sans-serif" font-size="9" fill="#cdd6f4" opacity="0.45">media/next</text></g><g color="#cdd6f4"><use href="#media-prev" x="776" y="542" width="24" height="24"/><use href="#media-prev" x="810" y="546" width="16" height="16"/><use href="#media-prev" x="836" y="538" width="40" height="40"/><text x="884" y="556" font-family="sans-serif" font-size="10.5" fill="#cdd6f4" opacity="0.75">skip_previous</text><text x="884" y="570" font-family="sans-serif" font-size="9" fill="#cdd6f4" opacity="0.45">media/prev</text></g><g color="#cdd6f4"><use href="#media-shuffle" x="966" y="542" width="24" height="24"/><use href="#media-shuffle" x="1000" y="546" width="16" height="16"/><use href="#media-shuffle" x="1026" y="538" width="40" height="40"/><text x="1074" y="556" font-family="sans-serif" font-size="10.5" fill="#cdd6f4" opacity="0.75">shuffle</text><text x="1074" y="570" font-family="sans-serif" font-size="9" fill="#cdd6f4" opacity="0.45">media/shuffle</text></g><g color="#cdd6f4"><use href="#media-repeat" x="1156" y="542" width="24" height="24"/><use href="#media-repeat" x="1190" y="546" width="16" height="16"/><use href="#media-repeat" x="1216" y="538" width="40" height="40"/><text x="1264" y="556" font-family="sans-serif" font-size="10.5" fill="#cdd6f4" opacity="0.75">repeat</text><text x="1264" y="570" font-family="sans-serif" font-size="9" fill="#cdd6f4" opacity="0.45">media/repeat</text></g><g color="#cdd6f4"><use href="#media-music-note" x="1346" y="542" width="24" height="24"/><use href="#media-music-note" x="1380" y="546" width="16" height="16"/><use href="#media-music-note" x="1406" y="538" width="40" height="40"/><text x="1454" y="556" font-family="sans-serif" font-size="10.5" fill="#cdd6f4" opacity="0.75">music_note</text><text x="1454" y="570" font-family="sans-serif" font-size="9" fill="#cdd6f4" opacity="0.45">media/music-note</text></g><text x="16" y="618" font-family="sans-serif" font-size="11" letter-spacing="2" fill="#cdd6f4" opacity="0.55">ACTIONS</text><g color="#cdd6f4"><use href="#actions-search" x="16" y="604" width="24" height="24"/><use href="#actions-search" x="50" y="608" width="16" height="16"/><use href="#actions-search" x="76" y="600" width="40" height="40"/><text x="124" y="618" font-family="sans-serif" font-size="10.5" fill="#cdd6f4" opacity="0.75">search</text><text x="124" y="632" font-family="sans-serif" font-size="9" fill="#cdd6f4" opacity="0.45">actions/search</text></g><g color="#cdd6f4"><use href="#actions-close" x="206" y="604" width="24" height="24"/><use href="#actions-close" x="240" y="608" width="16" height="16"/><use href="#actions-close" x="266" y="600" width="40" height="40"/><text x="314" y="618" font-family="sans-serif" font-size="10.5" fill="#cdd6f4" opacity="0.75">close</text><text x="314" y="632" font-family="sans-serif" font-size="9" fill="#cdd6f4" opacity="0.45">actions/close</text></g><g color="#cdd6f4"><use href="#actions-minimize" x="396" y="604" width="24" height="24"/><use href="#actions-minimize" x="430" y="608" width="16" height="16"/><use href="#actions-minimize" x="456" y="600" width="40" height="40"/><text x="504" y="618" font-family="sans-serif" font-size="10.5" fill="#cdd6f4" opacity="0.75">minimize</text><text x="504" y="632" font-family="sans-serif" font-size="9" fill="#cdd6f4" opacity="0.45">actions/minimize</text></g><g color="#cdd6f4"><use href="#actions-arrow-left" x="586" y="604" width="24" height="24"/><use href="#actions-arrow-left" x="620" y="608" width="16" height="16"/><use href="#actions-arrow-left" x="646" y="600" width="40" height="40"/><text x="694" y="618" font-family="sans-serif" font-size="10.5" fill="#cdd6f4" opacity="0.75">chevron_left</text><text x="694" y="632" font-family="sans-serif" font-size="9" fill="#cdd6f4" opacity="0.45">actions/arrow-left</text></g><g color="#cdd6f4"><use href="#actions-arrow-right" x="776" y="604" width="24" height="24"/><use href="#actions-arrow-right" x="810" y="608" width="16" height="16"/><use href="#actions-arrow-right" x="836" y="600" width="40" height="40"/><text x="884" y="618" font-family="sans-serif" font-size="10.5" fill="#cdd6f4" opacity="0.75">chevron_right</text><text x="884" y="632" font-family="sans-serif" font-size="9" fill="#cdd6f4" opacity="0.45">actions/arrow-right</text></g><g color="#cdd6f4"><use href="#actions-refresh" x="966" y="604" width="24" height="24"/><use href="#actions-refresh" x="1000" y="608" width="16" height="16"/><use href="#actions-refresh" x="1026" y="600" width="40" height="40"/><text x="1074" y="618" font-family="sans-serif" font-size="10.5" fill="#cdd6f4" opacity="0.75">refresh</text><text x="1074" y="632" font-family="sans-serif" font-size="9" fill="#cdd6f4" opacity="0.45">actions/refresh</text></g><text x="16" y="680" font-family="sans-serif" font-size="11" letter-spacing="2" fill="#cdd6f4" opacity="0.55">RECORD</text><g color="#cdd6f4"><use href="#record-record-circle" x="16" y="666" width="24" height="24"/><use href="#record-record-circle" x="50" y="670" width="16" height="16"/><use href="#record-record-circle" x="76" y="662" width="40" height="40"/><text x="124" y="680" font-family="sans-serif" font-size="10.5" fill="#cdd6f4" opacity="0.75">radio_button_checked</text><text x="124" y="694" font-family="sans-serif" font-size="9" fill="#cdd6f4" opacity="0.45">record/record-circle</text></g><g color="#cdd6f4"><use href="#record-pause-circle" x="206" y="666" width="24" height="24"/><use href="#record-pause-circle" x="240" y="670" width="16" height="16"/><use href="#record-pause-circle" x="266" y="662" width="40" height="40"/><text x="314" y="680" font-family="sans-serif" font-size="10.5" fill="#cdd6f4" opacity="0.75">pause_circle</text><text x="314" y="694" font-family="sans-serif" font-size="9" fill="#cdd6f4" opacity="0.45">record/pause-circle</text></g><g color="#cdd6f4"><use href="#record-stop-circle" x="396" y="666" width="24" height="24"/><use href="#record-stop-circle" x="430" y="670" width="16" height="16"/><use href="#record-stop-circle" x="456" y="662" width="40" height="40"/><text x="504" y="680" font-family="sans-serif" font-size="10.5" fill="#cdd6f4" opacity="0.75">stop_circle</text><text x="504" y="694" font-family="sans-serif" font-size="9" fill="#cdd6f4" opacity="0.45">record/stop-circle</text></g><g color="#cdd6f4"><use href="#record-screenshot" x="586" y="666" width="24" height="24"/><use href="#record-screenshot" x="620" y="670" width="16" height="16"/><use href="#record-screenshot" x="646" y="662" width="40" height="40"/><text x="694" y="680" font-family="sans-serif" font-size="10.5" fill="#cdd6f4" opacity="0.75">screenshot</text><text x="694" y="694" font-family="sans-serif" font-size="9" fill="#cdd6f4" opacity="0.45">record/screenshot</text></g><g color="#cdd6f4"><use href="#record-scissors" x="776" y="666" width="24" height="24"/><use href="#record-scissors" x="810" y="670" width="16" height="16"/><use href="#record-scissors" x="836" y="662" width="40" height="40"/><text x="884" y="680" font-family="sans-serif" font-size="10.5" fill="#cdd6f4" opacity="0.75">content_cut</text><text x="884" y="694" font-family="sans-serif" font-size="9" fill="#cdd6f4" opacity="0.45">record/scissors</text></g></svg>